<svg width="19" height="19" viewBox="0 0 19 19" fill="none" xmlns="http://www.w3.org/2000/svg">
<path d="M5.02883 5.06433C6.06789 4.0165 7.50686 3.3663 9.0888 3.36784C10.5473 3.36926 11.878 3.91684 12.8872 4.81731C13.0318 4.94632 13.2639 4.93784 13.4009 4.80081L15.2526 2.9492C15.4033 2.79842 15.3992 2.55204 15.2425 2.40742C13.5921 0.884077 11.376 -0.0351591 8.94471 0.00103049C6.48667 0.0376119 4.26322 1.05865 2.64802 2.68351C2.46792 2.86467 2.67858 5.05788 2.67858 5.05788C2.67858 5.05788 4.01499 6.08675 5.02883 5.06433Z" fill="url(#paint0_linear_8_103)"/>
<path d="M5.02833 5.06436C6.06739 4.01653 7.50635 3.36633 9.08829 3.36786C10.5468 3.36929 11.8775 3.91687 12.8867 4.81733C13.0313 4.94635 13.2634 4.93787 13.4004 4.80084L14.463 3.73827C14.3705 3.66675 14.2792 3.59166 14.1902 3.5128C12.8049 2.28595 11.0026 1.50528 9.00181 1.52629C6.92682 1.54809 5.06309 2.39442 3.71549 3.75145C3.56814 3.89984 3.51025 5.06026 3.51025 5.06026C3.51025 5.06026 3.68315 5.04462 5.02833 5.06436Z" fill="url(#paint1_linear_8_103)"/>
<path d="M3.3682 9.03137C3.35396 10.6392 4.00366 12.0954 5.05942 13.1422L4.24908 14.891L2.67825 15.5234C1.02692 13.881 0.00357133 11.6081 9.36584e-06 9.0962C-0.0035526 6.60175 1.00911 4.33171 2.64797 2.68359L5.02879 5.06441C4.01506 6.08669 3.38174 7.48762 3.3682 9.03137Z" fill="url(#paint2_linear_8_103)"/>
<path d="M3.36804 9.03137C3.3538 10.6392 4.0035 12.0954 5.05926 13.1422L3.75737 14.4445C2.40596 13.1023 1.55928 11.2526 1.52686 9.2052C1.49303 7.0755 2.33258 5.14456 3.71605 3.75183L5.02863 5.06441C4.0149 6.0867 3.38158 7.48762 3.36804 9.03137Z" fill="url(#paint3_linear_8_103)"/>
<path d="M13.1115 13.1469C12.0701 14.1788 10.6323 14.8081 9.04629 14.7981C7.49171 14.7883 6.08473 14.1575 5.0601 13.1418L2.67871 15.5232C4.31476 17.1503 6.56699 18.1584 9.05477 18.166C11.5476 18.1737 13.8148 17.1486 15.4642 15.4996L14.7836 14.0443L13.1115 13.1469Z" fill="url(#paint4_linear_8_103)"/>
<path d="M13.111 13.1468C12.0695 14.1787 10.6318 14.8082 9.04581 14.7982C7.49126 14.7884 6.08428 14.1576 5.05965 13.1418L3.75732 14.4442C5.12344 15.8013 7.00516 16.6401 9.08282 16.6401C11.1605 16.6401 13.0422 15.8013 14.4083 14.4442L13.111 13.1468Z" fill="url(#paint5_linear_8_103)"/>
<path d="M18.166 8.15017C18.166 7.97111 18.0209 7.82593 17.8418 7.82593H9.38712C9.22673 7.82593 9.09668 7.95598 9.09668 8.11637V10.9118C9.09668 11.0722 9.22673 11.2023 9.38712 11.2023H13.5162C13.9415 11.2023 14.2056 11.6664 13.9868 12.0311C13.7427 12.4382 13.449 12.8112 13.1146 13.143C13.1134 13.1443 13.1125 13.1455 13.1113 13.1468L15.4643 15.4999C15.5754 15.3888 15.6881 15.2776 15.8018 15.1661C17.272 13.5357 18.166 11.3725 18.166 9.01267V8.15017Z" fill="url(#paint6_linear_8_103)"/>
<path d="M16.2582 11.4617C16.5906 10.4572 15.8461 9.42139 14.7882 9.42139H9.09668V10.9119C9.09668 11.0723 9.22673 11.2023 9.38712 11.2023H13.5162C13.9415 11.2023 14.2056 11.6664 13.9868 12.0311C13.7434 12.4369 13.4508 12.8087 13.1179 13.1398C13.1155 13.1421 13.1137 13.1444 13.1113 13.1468L14.4085 14.4441C15.0981 13.7599 15.6559 12.9431 16.0417 12.0355C16.1211 11.8478 16.1934 11.6565 16.2582 11.4617Z" fill="url(#paint7_linear_8_103)"/>
<defs>
<linearGradient id="paint0_linear_8_103" x1="2.57521" y1="2.75853" x2="15.3628" y2="2.75853" gradientUnits="userSpaceOnUse">
<stop stop-color="#FF637B"/>
<stop offset="1" stop-color="#F90217"/>
</linearGradient>
<linearGradient id="paint1_linear_8_103" x1="12.2589" y1="7.67161" x2="4.22475" y2="-0.362582" gradientUnits="userSpaceOnUse">
<stop stop-color="#FF637B"/>
<stop offset="1" stop-color="#F90217"/>
</linearGradient>
<linearGradient id="paint2_linear_8_103" x1="0.216007" y1="6.65643" x2="5.15531" y2="11.5957" gradientUnits="userSpaceOnUse">
<stop stop-color="#FFD833"/>
<stop offset="1" stop-color="#F2B631"/>
</linearGradient>
<linearGradient id="paint3_linear_8_103" x1="6.27753" y1="11.639" x2="0.999943" y2="6.36143" gradientUnits="userSpaceOnUse">
<stop stop-color="#FFD833"/>
<stop offset="1" stop-color="#F2B631"/>
</linearGradient>
<linearGradient id="paint4_linear_8_103" x1="8.30088" y1="14.3535" x2="11.0568" y2="17.1094" gradientUnits="userSpaceOnUse">
<stop stop-color="#28A265"/>
<stop offset="1" stop-color="#28895E"/>
</linearGradient>
<linearGradient id="paint5_linear_8_103" x1="12.6035" y1="17.9649" x2="4.63168" y2="9.99303" gradientUnits="userSpaceOnUse">
<stop stop-color="#28A265"/>
<stop offset="1" stop-color="#28895E"/>
</linearGradient>
<linearGradient id="paint6_linear_8_103" x1="12.965" y1="8.85762" x2="17.1922" y2="13.0848" gradientUnits="userSpaceOnUse">
<stop stop-color="#7FAEF4"/>
<stop offset="1" stop-color="#4C8DF1"/>
</linearGradient>
<linearGradient id="paint7_linear_8_103" x1="16.5051" y1="14.4686" x2="11.0174" y2="8.98084" gradientUnits="userSpaceOnUse">
<stop stop-color="#7FAEF4"/>
<stop offset="1" stop-color="#4C8DF1"/>
</linearGradient>
</defs>
</svg>
